<svg width="15" height="15" fill="none" xmlns="http://www.w3.org/2000/svg"><g clip-path="url(#a)" fill="#ADADAD"><path d="M12.99 2.037h-1.896v-.875a.437.437 0 1 0-.875 0v.875H7.594v-.875a.437.437 0 1 0-.875 0v.875H4.094v-.875a.437.437 0 1 0-.875 0v.875H1.323C.68 2.037.156 2.56.156 3.204v10.354c0 .645.523 1.167 1.167 1.167H12.99c.644 0 1.166-.522 1.166-1.167V3.204c0-.645-.522-1.167-1.166-1.167Zm.291 11.521c0 .161-.13.292-.291.292H1.323a.292.292 0 0 1-.292-.292V3.204c0-.16.131-.292.292-.292H3.22v.875a.437.437 0 1 0 .875 0v-.875h2.625v.875a.437.437 0 1 0 .875 0v-.875h2.625v.875a.437.437 0 1 0 .875 0v-.875h1.896c.16 0 .291.131.291.292v10.354Z"/><path d="M4.969 5.975h-1.75v1.312h1.75V5.975ZM4.969 8.162h-1.75v1.313h1.75V8.162ZM4.969 10.35h-1.75v1.312h1.75V10.35ZM8.031 10.35h-1.75v1.312h1.75V10.35ZM8.031 8.162h-1.75v1.313h1.75V8.162ZM8.031 5.975h-1.75v1.312h1.75V5.975ZM11.094 10.35h-1.75v1.312h1.75V10.35ZM11.094 8.162h-1.75v1.313h1.75V8.162ZM11.094 5.975h-1.75v1.312h1.75V5.975Z"/></g><defs><clipPath id="a"><path fill="#fff" transform="translate(.156 .725)" d="M0 0h14v14H0z"/></clipPath></defs></svg>