<svg width="12" height="11" fill="none" xmlns="http://www.w3.org/2000/svg"><g clip-path="url(#a)"><path d="m11.324 2.794-.36-.362a.598.598 0 0 0-.426-.176.598.598 0 0 0-.425.176l-4.11 4.11-4.116-4.115a.597.597 0 0 0-.425-.176.598.598 0 0 0-.426.176l-.36.36a.602.602 0 0 0 0 .852l4.9 4.917a.615.615 0 0 0 .426.193h.002c.161 0 .312-.08.425-.193l4.895-4.904a.608.608 0 0 0 0-.858Z" fill="#242424"/></g><defs><clipPath id="a"><path fill="#fff" transform="translate(.5)" d="M0 0h11v11H0z"/></clipPath></defs></svg>