<svg width="15" height="15" fill="none" xmlns="http://www.w3.org/2000/svg"><g clip-path="url(#a)"><path d="M14.568 6.81 9.512 1.754a.76.76 0 0 0-.541-.223.76.76 0 0 0-.542.223l-.46.46a.776.776 0 0 0 0 1.09l2.95 2.955H1.55a.748.748 0 0 0-.757.754v.649c0 .423.334.787.756.787h9.405L7.97 11.42a.755.755 0 0 0 0 1.076l.459.458a.76.76 0 0 0 .542.223c.205 0 .397-.08.541-.224l5.056-5.056a.76.76 0 0 0 .224-.544c0-.206-.079-.4-.224-.544Z" fill="#242424"/></g><defs><clipPath id="a"><path fill="#fff" transform="translate(.792 .354)" d="M0 0h14v14H0z"/></clipPath></defs></svg>