<svg width="15" height="15" fill="none" xmlns="http://www.w3.org/2000/svg"><g clip-path="url(#a)" fill="#fff"><path d="M7.433 8.948a.785.785 0 0 1-.413.116.785.785 0 0 1-.413-.116L.028 4.932v5.338c0 1.141.926 2.067 2.066 2.067h9.868c1.14 0 2.066-.926 2.066-2.066V4.93L7.433 8.949Z"/><path d="M11.962 2.022H2.094c-.975 0-1.801.695-2 1.62l6.943 4.232 6.925-4.232a2.054 2.054 0 0 0-2-1.62Z"/></g><defs><clipPath id="a"><path fill="#fff" transform="translate(.028 .18)" d="M0 0h14v14H0z"/></clipPath></defs></svg>