<svg width="32" height="32" fill="none" xmlns="http://www.w3.org/2000/svg"><mask id="a" style="mask-type:alpha" maskUnits="userSpaceOnUse" x="0" y="0" width="32" height="32"><path fill="#D9D9D9" d="M0 0h32v32H0z"/></mask><g mask="url(#a)"><path d="M22.39 10.33a8.343 8.343 0 0 0-5.912-2.45c-4.625 0-8.371 3.733-8.371 8.341 0 1.459.41 2.917 1.112 4.142L8.05 24.68l4.448-1.167a8.558 8.558 0 0 0 3.98.992c4.625 0 8.371-3.733 8.371-8.342-.058-2.158-.878-4.258-2.458-5.833Zm-1.873 8.867c-.176.466-.995.933-1.405.991-.351.059-.82.059-1.288-.058-.293-.117-.703-.233-1.17-.467-2.108-.875-3.454-2.975-3.572-3.15-.117-.117-.878-1.108-.878-2.158 0-1.05.527-1.517.703-1.75.175-.234.41-.234.585-.234h.41c.117 0 .293-.058.468.35.176.409.586 1.459.644 1.517a.37.37 0 0 1 0 .35 1.219 1.219 0 0 1-.234.35c-.117.117-.234.292-.293.35-.117.117-.234.233-.117.409.117.233.527.875 1.171 1.458.82.7 1.463.933 1.698 1.05.234.117.35.058.468-.058.117-.117.527-.584.644-.817.117-.233.293-.175.468-.117.176.058 1.23.584 1.405.7.234.117.351.175.41.233.058.175.058.584-.117 1.05Z" fill="#FCCC25"/></g></svg>