<svg width="15" height="15" fill="none" xmlns="http://www.w3.org/2000/svg"><g clip-path="url(#a)"><path d="M14.66 7.06 9.606 2.006a.76.76 0 0 0-.542-.224.76.76 0 0 0-.542.224l-.46.459a.776.776 0 0 0 0 1.09l2.95 2.956h-9.37a.748.748 0 0 0-.757.753v.65c0 .422.334.786.757.786h9.404l-2.983 2.973a.755.755 0 0 0 0 1.076l.459.457a.76.76 0 0 0 .542.223.76.76 0 0 0 .542-.224l5.056-5.056a.761.761 0 0 0 .223-.543c0-.206-.079-.4-.223-.544Z" fill="#242424"/></g><defs><clipPath id="a"><path fill="#fff" transform="translate(.884 .605)" d="M0 0h14v14H0z"/></clipPath></defs></svg>