<svg width="30" height="30" fill="none" xmlns="http://www.w3.org/2000/svg"><mask id="a" style="mask-type:alpha" maskUnits="userSpaceOnUse" x="0" y="0" width="30" height="30"><path fill="#D9D9D9" d="M0 0h30v30H0z"/></mask><g mask="url(#a)" fill="#242424"><path d="M24.513 4H5.487A3.491 3.491 0 0 0 2 7.487v14.147a3.491 3.491 0 0 0 3.487 3.487h19.026A3.491 3.491 0 0 0 28 21.634V7.487A3.491 3.491 0 0 0 24.513 4Zm1.561 17.634c0 .86-.7 1.561-1.561 1.561H5.487c-.86 0-1.561-.7-1.561-1.561v-5.95h22.148v5.95Zm0-7.876H3.926V10.87h22.148v2.89Zm0-4.815H3.926V7.487c0-.86.7-1.561 1.561-1.561h19.026c.86 0 1.561.7 1.561 1.561v1.456Z"/><path d="M23.57 19.6h-9.18a.963.963 0 0 0 0 1.926h9.18a.963.963 0 1 0 0-1.926Z"/></g></svg>