<svg width="30" height="30" fill="none" xmlns="http://www.w3.org/2000/svg"><mask id="a" style="mask-type:alpha" maskUnits="userSpaceOnUse" x="0" y="0" width="30" height="30"><path fill="#D9D9D9" d="M0 0h30v30H0z"/></mask><g mask="url(#a)" fill="#F1F1F1"><path d="M23.196 3H6.227C5.551 3 5 3.55 5 4.227v22.68c0 .676.55 1.226 1.227 1.226h16.969c.676 0 1.227-.55 1.227-1.227V4.227c0-.676-.55-1.227-1.227-1.227Zm-.246 23.66H6.473V4.474H22.95V26.66Z"/><path d="M9.167 11.737H20.25a.736.736 0 0 0 0-1.472H9.167a.736.736 0 0 0 0 1.472ZM9.167 14.683H20.25a.736.736 0 0 0 0-1.473H9.167a.736.736 0 0 0 0 1.473ZM9.167 17.628H20.25a.736.736 0 0 0 0-1.472H9.167a.736.736 0 1 0 0 1.472ZM9.167 8.932h6.297a.736.736 0 0 0 0-1.473H9.167a.736.736 0 0 0 0 1.473ZM18.643 22.584h-.273a.229.229 0 0 1-.217-.156l-.252-.75a1.352 1.352 0 0 0-1.255-.93 1.35 1.35 0 0 0-1.305.857l-.21.525-.46-1.433a1.358 1.358 0 0 0-1.298-.947h-.012c-.6.006-1.12.396-1.294.97l-.562 1.864h-.976a.736.736 0 0 0 0 1.473h1.523a.736.736 0 0 0 .705-.524l.619-2.053.582 1.809a1.192 1.192 0 0 0 1.148.836c.496 0 .932-.294 1.117-.758l.376-.94.158.47a1.7 1.7 0 0 0 1.613 1.16h.273a.736.736 0 0 0 0-1.473Z"/></g></svg>