<svg width="30" height="30" fill="none" xmlns="http://www.w3.org/2000/svg"><mask id="a" style="mask-type:alpha" maskUnits="userSpaceOnUse" x="0" y="0" width="30" height="30"><path fill="#D9D9D9" d="M0 0h30v30H0z"/></mask><g mask="url(#a)" fill="#242424"><path d="m25.037 9.697-.018-.03a1.153 1.153 0 0 0-.086-.149l-3.376-5.836A1.369 1.369 0 0 0 20.376 3H8.757c-.486 0-.94.262-1.182.683L4.144 9.636a.712.712 0 0 0-.07.166c-.047.13-.074.272-.074.419v15.373c0 .922.75 1.673 1.672 1.673H23.46c.922 0 1.673-.75 1.673-1.673v-15.43l-.002-.061a.707.707 0 0 0-.094-.406Zm-9.735-5.275h5.04L23 9.014h-7.697V4.422Zm-6.511 0h5.088v4.592H6.144L8.79 4.422Zm14.92 21.172a.25.25 0 0 1-.25.25H5.671a.25.25 0 0 1-.25-.25V10.436H23.71v15.158Z"/><path d="M17.795 15.798a.711.711 0 0 0-1.006 0l-3.176 3.176-1.22-1.221a.711.711 0 0 0-1.007 1.005l1.725 1.724a.709.709 0 0 0 1.005 0l3.679-3.678a.711.711 0 0 0 0-1.006Z"/></g></svg>