<svg width="30" height="30" fill="none" xmlns="http://www.w3.org/2000/svg"><mask id="a" style="mask-type:alpha" maskUnits="userSpaceOnUse" x="0" y="0" width="30" height="30"><path fill="#D9D9D9" d="M0 0h30v30H0z"/></mask><g mask="url(#a)" fill="#F1F1F1"><path d="M24.992 4.325H5.875A3.88 3.88 0 0 0 2 8.2v14.467a3.88 3.88 0 0 0 3.875 3.875h19.117a3.88 3.88 0 0 0 3.875-3.875V8.2a3.88 3.88 0 0 0-3.875-3.875Zm2.325 13.434h-5.684a2.328 2.328 0 0 1-2.325-2.325 2.328 2.328 0 0 1 2.325-2.325h5.684v4.65Zm0-6.2h-5.684a3.88 3.88 0 0 0-3.875 3.875 3.88 3.88 0 0 0 3.875 3.874h5.684v3.359a2.328 2.328 0 0 1-2.325 2.325H5.875a2.328 2.328 0 0 1-2.325-2.325V8.2a2.328 2.328 0 0 1 2.325-2.325h19.117A2.328 2.328 0 0 1 27.317 8.2v3.359Z"/><path d="M22.667 14.659h-1.034a.775.775 0 0 0 0 1.55h1.034a.775.775 0 0 0 0-1.55Z"/></g></svg>