<svg width="48" height="47" fill="none" xmlns="http://www.w3.org/2000/svg"><rect x=".625" width="47" height="47" rx="23.5" fill="#FCCC25"/><path d="M33.439 14.173a12.253 12.253 0 0 0-8.683-3.598c-6.793 0-12.295 5.483-12.295 12.252 0 2.142.602 4.284 1.633 6.083l-1.719 6.34 6.534-1.714c1.806.943 3.783 1.457 5.847 1.457 6.792 0 12.294-5.483 12.294-12.252-.086-3.17-1.29-6.254-3.611-8.568Zm-2.751 13.023c-.258.686-1.462 1.371-2.064 1.457a4.82 4.82 0 0 1-1.891-.086c-.43-.171-1.032-.343-1.72-.685-3.095-1.285-5.072-4.37-5.244-4.627-.172-.171-1.29-1.628-1.29-3.17s.774-2.227 1.032-2.57c.258-.343.602-.343.86-.343h.602c.172 0 .43-.085.687.514.258.6.86 2.142.946 2.228a.544.544 0 0 1 0 .514c-.086.171-.172.343-.344.514-.172.171-.344.428-.43.514-.172.171-.344.343-.172.6.172.342.774 1.285 1.72 2.142 1.204 1.028 2.15 1.37 2.493 1.542.344.171.516.086.688-.086.172-.171.774-.857.946-1.2.172-.342.43-.256.688-.17.257.085 1.805.856 2.063 1.027.344.172.516.258.602.343.086.257.086.857-.172 1.542Z" fill="#000"/></svg>