<svg width="47" height="47" fill="none" xmlns="http://www.w3.org/2000/svg"><mask id="a" style="mask-type:alpha" maskUnits="userSpaceOnUse" x="0" y="0" width="47" height="47"><path fill="#D9D9D9" d="M0 0h47v47H0z"/></mask><g mask="url(#a)"><circle cx="23.5" cy="23.5" r="23.5" fill="#FCCC25"/></g><path d="M23.5 14c-4.433 0-8.04 3.606-8.04 8.04a8.036 8.036 0 0 0 1.634 4.857L23.151 35h.698l6.057-8.103a8.036 8.036 0 0 0 1.634-4.858c0-4.433-3.607-8.039-8.04-8.039Zm0 10.705a2.67 2.67 0 0 1-2.666-2.666 2.67 2.67 0 0 1 2.666-2.666 2.67 2.67 0 0 1 2.666 2.666 2.67 2.67 0 0 1-2.666 2.666Z" fill="#000"/></svg>